# xmcd CD database file
#
# Track frame offsets:
#	150
#	33073
#	53274
#	81990
#	101621
#	115201
#	141219
#	163514
#	182529
#	205169
#	219668
#	246309
#
# Disc length: 3727 seconds
#
# Revision: 0
# Processed by: cddbd v1.5PL3 Copyright (c) Steve Scherf et al.
# Submitted via: CDex 1.50beta9
#
DISCID=9c0e8d0c
DTITLE=Mojo Swamp - Movin' Down the line
DYEAR=2003
DGENRE=Blues
TTITLE0=Feel like I'm going Home
TTITLE1=Talk to me
TTITLE2=Come on in my Kitchen
TTITLE3=Hey Hey
TTITLE4=You can love yourself
TTITLE5=Louisiana Blues
TTITLE6=Biggin' my Potatoes
TTITLE7=Mr. Banker
TTITLE8=Rambling on my mind
TTITLE9=Every Morning
TTITLE10=Can't be satisfied
TTITLE11=Howlin' Wolf
EXTD=YEAR: 2003
EXTT0=
EXTT1=
EXTT2=
EXTT3=
EXTT4=
EXTT5=
EXTT6=
EXTT7=
EXTT8=
EXTT9=
EXTT10=
EXTT11=
PLAYORDER=
